<svg width="26" height="26" viewBox="0 0 26 26" fill="none" xmlns="http://www.w3.org/2000/svg">
<path d="M22.1523 22.1533H18.2999V16.1201C18.2999 14.6814 18.2742 12.8294 16.2962 12.8294C14.2898 12.8294 13.9828 14.3969 13.9828 16.0154V22.1529H10.1304V9.74621H13.8287V11.4417H13.8805C14.2506 10.8089 14.7854 10.2883 15.428 9.93535C16.0705 9.58243 16.7968 9.41041 17.5294 9.43761C21.434 9.43761 22.1539 12.006 22.1539 15.3472L22.1523 22.1533ZM5.78362 8.0503C5.34146 8.05038 4.9092 7.91934 4.54151 7.67374C4.17383 7.42815 3.88725 7.07904 3.71797 6.67056C3.54869 6.26207 3.50432 5.81256 3.59051 5.37887C3.67669 4.94518 3.88954 4.54678 4.20214 4.23406C4.51474 3.92135 4.91304 3.70835 5.34669 3.62201C5.78034 3.53566 6.22984 3.57986 6.63837 3.749C7.0469 3.91813 7.3961 4.20462 7.64182 4.57223C7.88753 4.93984 8.01873 5.37206 8.01881 5.81423C8.01886 6.10782 7.96108 6.39855 7.84878 6.66981C7.73648 6.94108 7.57187 7.18757 7.36431 7.3952C7.15676 7.60284 6.91032 7.76756 6.6391 7.87996C6.36789 7.99236 6.0772 8.05025 5.78362 8.0503V8.0503ZM7.70981 22.1533H3.85341V9.74621H7.70981V22.1533ZM24.0728 0.00134418H1.9176C1.41473 -0.00433081 0.930168 0.189875 0.570417 0.541285C0.210666 0.892696 0.00516059 1.37256 -0.000976562 1.87543V24.1233C0.00495054 24.6264 0.210335 25.1066 0.570074 25.4584C0.929813 25.8102 1.41449 26.0048 1.9176 25.9994H24.0728C24.5769 26.0057 25.063 25.8117 25.4241 25.4599C25.7853 25.1082 25.992 24.6274 25.999 24.1233V1.87383C25.9918 1.36996 25.7849 0.889548 25.4238 0.538146C25.0626 0.186744 24.5767 -0.00690713 24.0728 -0.000261689" fill="white"/>
</svg>
